<svg id="Layer_2" enable-background="new 0 0 64 64" height="512" viewBox="0 0 64 64" width="512" xmlns="http://www.w3.org/2000/svg"><path d="m60.744 56.951c0 1.1-.898 2-2 2h-47.558c-1.101 0-2-.9-2-2v-38.668c0-1.1.899-2 2-2h47.558c1.102 0 2 .9 2 2z" fill="#52b8d9"/><path d="m58.744 59.451h-47.558c-1.378 0-2.5-1.121-2.5-2.5v-38.668c0-1.379 1.122-2.5 2.5-2.5h47.558c1.379 0 2.5 1.121 2.5 2.5v38.668c0 1.379-1.121 2.5-2.5 2.5zm-47.558-42.668c-.827 0-1.5.673-1.5 1.5v38.668c0 .827.673 1.5 1.5 1.5h47.558c.827 0 1.5-.673 1.5-1.5v-38.668c0-.827-.673-1.5-1.5-1.5z" fill="#63312d"/><path d="m54.744 56.951c0 1.1-.898 2-2 2h-47.558c-1.101 0-2-.9-2-2v-38.668c0-1.1.899-2 2-2h47.558c1.102 0 2 .9 2 2z" fill="#82d9ff"/><path d="m5.186 56.951v-38.668c0-1.1.899-2 2-2h-2c-1.101 0-2 .9-2 2v38.668c0 1.1.899 2 2 2h2c-1.101 0-2-.9-2-2z" fill="#caf4ff"/><path d="m60.744 18.283c0-1.1-.898-2-2-2h-47.558c-1.101 0-2 .9-2 2v3.668h51.558z" fill="#d1d1d1"/><path d="m60.744 22.451h-51.558c-.276 0-.5-.224-.5-.5v-3.668c0-1.379 1.122-2.5 2.5-2.5h47.558c1.379 0 2.5 1.121 2.5 2.5v3.668c0 .277-.223.5-.5.5zm-51.058-1h50.558v-3.168c0-.827-.673-1.5-1.5-1.5h-47.558c-.827 0-1.5.673-1.5 1.5z" fill="#63312d"/><path d="m54.744 18.283c0-1.1-.898-2-2-2h-47.558c-1.101 0-2 .9-2 2v3.668h51.558z" fill="#f8f3f3"/><path d="m54.744 22.451h-51.558c-.276 0-.5-.224-.5-.5v-3.668c0-1.379 1.122-2.5 2.5-2.5h47.558c1.379 0 2.5 1.121 2.5 2.5v3.668c0 .277-.223.5-.5.5zm-51.058-1h50.558v-3.168c0-.827-.673-1.5-1.5-1.5h-47.558c-.827 0-1.5.673-1.5 1.5z" fill="#63312d"/><path d="m52.744 59.451h-47.558c-1.378 0-2.5-1.121-2.5-2.5v-38.668c0-1.379 1.122-2.5 2.5-2.5h47.558c1.379 0 2.5 1.121 2.5 2.5v38.668c0 1.379-1.121 2.5-2.5 2.5zm-47.558-42.668c-.827 0-1.5.673-1.5 1.5v38.668c0 .827.673 1.5 1.5 1.5h47.558c.827 0 1.5-.673 1.5-1.5v-38.668c0-.827-.673-1.5-1.5-1.5z" fill="#63312d"/><path d="m9.093 19.117c0 .631-.512 1.143-1.143 1.143-.632 0-1.144-.512-1.144-1.143s.512-1.143 1.144-1.143c.631.001 1.143.512 1.143 1.143z" fill="#f9dd9d"/><path d="m13.328 19.117c0 .631-.512 1.143-1.144 1.143-.631 0-1.143-.512-1.143-1.143s.512-1.143 1.143-1.143c.632.001 1.144.512 1.144 1.143z" fill="#f9dd9d"/><path d="m17.561 19.117c0 .631-.512 1.143-1.143 1.143-.632 0-1.144-.512-1.144-1.143s.512-1.143 1.144-1.143c.631.001 1.143.512 1.143 1.143z" fill="#f9dd9d"/><path d="m7.951 20.76c-.906 0-1.644-.737-1.644-1.643s.737-1.643 1.644-1.643c.906 0 1.643.737 1.643 1.643s-.738 1.643-1.643 1.643zm0-2.285c-.355 0-.644.288-.644.643s.289.643.644.643c.354 0 .643-.288.643-.643s-.289-.643-.643-.643z" fill="#63312d"/><path d="m12.184 20.76c-.906 0-1.643-.737-1.643-1.643s.737-1.643 1.643-1.643 1.644.737 1.644 1.643-.738 1.643-1.644 1.643zm0-2.285c-.354 0-.643.288-.643.643s.288.643.643.643.644-.288.644-.643-.289-.643-.644-.643z" fill="#63312d"/><path d="m16.418 20.76c-.906 0-1.644-.737-1.644-1.643s.737-1.643 1.644-1.643c.906 0 1.643.737 1.643 1.643s-.737 1.643-1.643 1.643zm0-2.285c-.355 0-.644.288-.644.643s.289.643.644.643c.354 0 .643-.288.643-.643s-.288-.643-.643-.643z" fill="#63312d"/><path d="m47.723 49.922c0 1.1-.9 2-2 2h-32.682c-1.1 0-2-.9-2-2v-42.873c0-1.1.9-2 2-2h32.681c1.1 0 2 .9 2 2v42.873z" fill="#f8f3f3"/><path d="m45.723 52.422h-32.681c-1.378 0-2.5-1.121-2.5-2.5v-42.873c0-1.379 1.122-2.5 2.5-2.5h32.681c1.379 0 2.5 1.121 2.5 2.5v42.873c0 1.379-1.121 2.5-2.5 2.5zm-32.681-46.873c-.827 0-1.5.673-1.5 1.5v42.873c0 .827.673 1.5 1.5 1.5h32.681c.827 0 1.5-.673 1.5-1.5v-42.873c0-.827-.673-1.5-1.5-1.5z" fill="#63312d"/><path d="m45.723 5.049h-32.682c-1.1 0-2 .9-2 2v5.441h36.681v-5.441c.001-1.1-.9-2-1.999-2z" fill="#f9a287"/><path d="m13.041 9.049c0-1.1.9-2 2-2h32.681c0-1.1-.9-2-2-2h-32.681c-1.1 0-2 .9-2 2v5.441h2z" fill="#ffc8bb"/><path d="m47.723 12.99h-36.681c-.276 0-.5-.224-.5-.5v-5.441c0-1.379 1.122-2.5 2.5-2.5h32.681c1.379 0 2.5 1.121 2.5 2.5v5.441c0 .277-.224.5-.5.5zm-36.181-1h35.681v-4.941c0-.827-.673-1.5-1.5-1.5h-32.681c-.827 0-1.5.673-1.5 1.5z" fill="#63312d"/><path d="m31.754 17.359h11.613v2.418h-11.613z" fill="#f8f3f3"/><path d="m15.396 17.359h12.999v12.709h-12.999z" fill="#f9dd9d"/><path d="m31.754 22.504h11.613v2.42h-11.613z" fill="#f8f3f3"/><path d="m31.754 27.65h11.613v2.418h-11.613z" fill="#f8f3f3"/><path d="m15.396 32.795h12.999v2.418h-12.999z" fill="#f8f3f3"/><path d="m15.396 37.939h12.999v2.42h-12.999z" fill="#f8f3f3"/><path d="m15.396 43.086h12.999v2.418h-12.999z" fill="#f8f3f3"/><path d="m43.367 20.277h-11.613c-.276 0-.5-.224-.5-.5v-2.418c0-.276.224-.5.5-.5h11.613c.276 0 .5.224.5.5v2.418c0 .277-.223.5-.5.5zm-11.113-1h10.613v-1.418h-10.613z" fill="#63312d"/><path d="m28.395 30.568h-12.999c-.276 0-.5-.224-.5-.5v-12.709c0-.276.224-.5.5-.5h12.999c.276 0 .5.224.5.5v12.709c0 .277-.224.5-.5.5zm-12.499-1h11.999v-11.709h-11.999z" fill="#63312d"/><path d="m43.367 25.424h-11.613c-.276 0-.5-.224-.5-.5v-2.42c0-.276.224-.5.5-.5h11.613c.276 0 .5.224.5.5v2.42c0 .276-.223.5-.5.5zm-11.113-1h10.613v-1.42h-10.613z" fill="#63312d"/><path d="m43.367 30.568h-11.613c-.276 0-.5-.224-.5-.5v-2.418c0-.276.224-.5.5-.5h11.613c.276 0 .5.224.5.5v2.418c0 .277-.223.5-.5.5zm-11.113-1h10.613v-1.418h-10.613z" fill="#63312d"/><path d="m31.754 32.795h11.613v2.418h-11.613z" fill="#f8f3f3"/><path d="m31.754 37.939h3.211v2.42h-3.211z" fill="#f8f3f3"/><g fill="#63312d"><path d="m43.367 35.713h-11.613c-.276 0-.5-.224-.5-.5v-2.418c0-.276.224-.5.5-.5h11.613c.276 0 .5.224.5.5v2.418c0 .276-.223.5-.5.5zm-11.113-1h10.613v-1.418h-10.613z"/><path d="m35.368 40.859h-3.614c-.276 0-.5-.224-.5-.5v-2.42c0-.276.224-.5.5-.5h3.614c.276 0 .5.224.5.5v2.42c0 .277-.223.5-.5.5zm-3.114-1h2.614v-1.42h-2.614z"/><path d="m28.395 35.713h-12.999c-.276 0-.5-.224-.5-.5v-2.418c0-.276.224-.5.5-.5h12.999c.276 0 .5.224.5.5v2.418c0 .276-.224.5-.5.5zm-12.499-1h11.999v-1.418h-11.999z"/><path d="m28.395 40.859h-12.999c-.276 0-.5-.224-.5-.5v-2.42c0-.276.224-.5.5-.5h12.999c.276 0 .5.224.5.5v2.42c0 .277-.224.5-.5.5zm-12.499-1h11.999v-1.42h-11.999z"/><path d="m28.395 46.004h-12.999c-.276 0-.5-.224-.5-.5v-2.418c0-.276.224-.5.5-.5h12.999c.276 0 .5.224.5.5v2.418c0 .276-.224.5-.5.5zm-12.499-1h11.999v-1.418h-11.999z"/></g><path d="m15.968 8.797c0 .631-.512 1.143-1.143 1.143-.632 0-1.144-.512-1.144-1.143s.512-1.143 1.144-1.143c.631 0 1.143.512 1.143 1.143z" fill="#f9dd9d"/><path d="m20.203 8.797c0 .631-.512 1.143-1.143 1.143s-1.143-.512-1.143-1.143.512-1.143 1.143-1.143 1.143.512 1.143 1.143z" fill="#f9dd9d"/><path d="m24.436 8.797c0 .631-.512 1.143-1.143 1.143-.632 0-1.144-.512-1.144-1.143s.512-1.143 1.144-1.143c.631 0 1.143.512 1.143 1.143z" fill="#f9dd9d"/><path d="m14.826 10.439c-.906 0-1.644-.737-1.644-1.643s.737-1.643 1.644-1.643c.906 0 1.643.737 1.643 1.643s-.738 1.643-1.643 1.643zm0-2.285c-.355 0-.644.288-.644.643s.289.643.644.643c.354 0 .643-.288.643-.643s-.289-.643-.643-.643z" fill="#63312d"/><path d="m19.059 10.439c-.906 0-1.643-.737-1.643-1.643s.737-1.643 1.643-1.643 1.644.737 1.644 1.643-.738 1.643-1.644 1.643zm0-2.285c-.354 0-.643.288-.643.643s.288.643.643.643.644-.288.644-.643-.289-.643-.644-.643z" fill="#63312d"/><path d="m23.293 10.439c-.906 0-1.644-.737-1.644-1.643s.737-1.643 1.644-1.643c.906 0 1.643.737 1.643 1.643s-.737 1.643-1.643 1.643zm0-2.285c-.355 0-.644.288-.644.643s.289.643.644.643c.354 0 .643-.288.643-.643s-.288-.643-.643-.643z" fill="#63312d"/><path d="m35.189 40.726 3.858-1.259 20.931-20.931c1.114-1.114 1.114-2.921 0-4.036-1.115-1.114-2.924-1.114-4.037 0l-20.93 20.931-1.257 3.857c-.134.408-.027.856.276 1.159.304.303.752.411 1.159.279z" fill="#f9dd9d"/><path d="m55.59 22.927 4.289-4.29c.99-.991 1.24-2.576.439-3.726-1.047-1.511-3.139-1.648-4.377-.41l-4.391 4.388z" fill="#f9a287"/><path d="m38.599 31.881h2.286v5.709h-2.286z" fill="#82d9ff" transform="matrix(.707 -.707 .707 .707 -12.923 38.263)"/><path d="m34.834 41.282c-.426 0-.843-.167-1.156-.48-.44-.438-.593-1.078-.399-1.669l1.257-3.857c.024-.074.066-.143.122-.198l20.931-20.931c1.266-1.268 3.477-1.268 4.744 0 1.308 1.309 1.308 3.437 0 4.743l-20.932 20.93c-.056.056-.124.098-.198.122l-3.858 1.259c-.168.055-.34.081-.511.081zm.615-5.583-1.22 3.744c-.076.23-.017.479.153.649.173.172.421.231.651.157l3.745-1.222 20.846-20.846c.917-.917.917-2.411 0-3.329-.89-.888-2.441-.89-3.33 0z" fill="#63312d"/><path d="m53.07 18.051h1v5.712h-1z" fill="#63312d" transform="matrix(.707 -.707 .707 .707 .907 44.004)"/><path d="m40.039 31.154h1v5.523h-1z" fill="#63312d" transform="matrix(.707 -.707 .707 .707 -12.108 38.599)"/><path d="m38.422 32.771h1v5.524h-1z" fill="#63312d" transform="matrix(.707 -.707 .707 .707 -13.725 37.936)"/><path d="m49.783 28.471c-.523-.522-.523-1.37 0-1.896l5.766-5.764c.524-.524 1.371-.524 1.895 0 .524.524.524 1.372 0 1.895l-5.765 5.765c-.524.523-1.372.523-1.896 0z" fill="#82d9ff"/><path d="m50.73 29.362c-.471 0-.941-.18-1.301-.538-.717-.716-.717-1.883-.001-2.602l5.767-5.765c.695-.695 1.906-.695 2.602 0 .349.349.54.812.54 1.304-.001.49-.192.952-.541 1.299l-5.764 5.764c-.358.359-.83.538-1.302.538zm5.766-8.444c-.224 0-.435.088-.594.247l-5.766 5.764c-.327.328-.327.861 0 1.188.317.314.869.316 1.188 0l5.765-5.765c.159-.158.247-.369.247-.592 0-.225-.088-.437-.247-.596s-.369-.246-.593-.246z" fill="#63312d"/></svg>